# xmcd CD database file
#
# Track frame offsets:
#	150
#	13602
#	28135
#	41782
#	54678
#	68966
#	82156
#	97312
#	110549
#	123724
#
# Disc length: 1840 seconds
#
# Revision: 0
# Processed by: cddbd v1.5.2PL0 Copyright (c) Steve Scherf et al.
# Submitted via: CDex 1.70beta2
#
DISCID=96072e0a
DTITLE=Legendary Blues - Women of the Blues
DYEAR=2002
DGENRE=Blues
TTITLE0=I Thought I'd Do It/Hattie McDaniel
TTITLE1=Fine and Mellow/Billie Holiday
TTITLE2=Little Rock Blues/Pearl Dickson
TTITLE3=Blue Lu Barker Blue/Lu Barker
TTITLE4=Blind Man Blues/Sara Martin
TTITLE5=My Daddy Rocks Me/Trixie Smith
TTITLE6=Back Water Blues/ Bessie Smith
TTITLE7=Rich Man's Blues/ Dinah Washington
TTITLE8=Pratt City Blues/ Bertha Chippie Hill
TTITLE9=Jazzin' Babbies Blues/ Eva Taylor
EXTD=YEAR: 2002
EXTT0=
EXTT1=
EXTT2=
EXTT3=
EXTT4=
EXTT5=
EXTT6=
EXTT7=
EXTT8=
EXTT9=
PLAYORDER=
